<svg t="1778518874476" class="icon" viewBox="0 0 1024 1024" version="1.1" xmlns="http://www.w3.org/2000/svg" p-id="12579" width="200" height="200"><path d="M504.234667 139.605333a32 32 0 0 1 15.530666 0l426.666667 106.666667a32 32 0 0 1 0 62.122667l-426.666667 106.666666a32 32 0 0 1-15.530666 0l-426.666667-106.666666a32 32 0 0 1 0-62.122667l426.666667-106.666667zM217.258667 277.333333L512 351.018667 806.741333 277.333333 512 203.648 217.258667 277.333333z" p-id="12580" fill="#555555"></path><path d="M277.333333 309.333333a32 32 0 0 1 32 32v193.706667l1.109334 0.554667c11.136 5.632 27.434667 13.226667 47.573333 20.821333 40.448 15.36 95.146667 30.250667 153.984 30.250667 58.88 0 113.536-14.933333 154.026667-30.250667 20.053333-7.594667 36.394667-15.189333 47.530666-20.864l1.109334-0.512V341.333333a32 32 0 0 1 64 0v212.693334a32 32 0 0 1-15.402667 27.392l-16.597333-27.392 16.597333 27.392h-0.085333l-0.128 0.085333-0.341334 0.213333-1.152 0.682667a409.6 409.6 0 0 1-19.114666 10.282667c-12.842667 6.485333-31.232 15.061333-53.76 23.594666-44.885333 16.981333-107.52 34.389333-176.682667 34.389334-69.12 0-131.797333-17.408-176.64-34.389334a561.28 561.28 0 0 1-68.778667-31.530666 260.608 260.608 0 0 1-4.138666-2.346667l-1.152-0.682667-0.341334-0.213333-0.128-0.042667c-0.042667 0-0.085333-0.042667 16.512-27.434666l-16.554666 27.392a32.042667 32.042667 0 0 1-15.445334-27.392V341.333333a32 32 0 0 1 32-32zM149.333333 266.666667a32 32 0 0 1 32 32v469.333333a32 32 0 0 1-64 0V298.666667a32 32 0 0 1 32-32z" p-id="12581" fill="#555555"></path><path d="M53.333333 725.333333a32 32 0 0 1 32-32h128a32 32 0 0 1 32 32v128a32 32 0 0 1-32 32H85.333333a32 32 0 0 1-32-32v-128z m64 32v64h64v-64h-64z" p-id="12582" fill="#555555"></path></svg>