<svg t="1776274591004" class="icon" viewBox="0 0 1024 1024" version="1.1" xmlns="http://www.w3.org/2000/svg" p-id="5880" width="200" height="200"><path d="M963.499093 642.346667l-55.893333-65.194667 11.648-139.605333L998.400427 358.4l-2.346667-4.693333-37.205333-55.808h-16.298667l-37.248-46.549334 11.648-137.301333L996.05376 34.901333V16.298667L121.003093 30.250667 55.89376 74.453333 23.25376 144.298667v90.752l55.893333 79.146666 34.901334 27.904-53.546667 55.893334L25.600427 467.754667v93.056l55.893333 76.8 30.208 25.6-55.850667 60.544L23.25376 793.6v90.752l55.893333 79.146667 41.856 34.901333 290.944 11.648 584.106667-6.997333-37.205333-34.901334-53.546667-67.498666 11.648-137.301334 79.104-79.146666-4.650667-6.954667h6.997334z" fill="#13A19B" fill-opacity=".36" p-id="5881"></path><path d="M1024.000427 707.498667V640c-55.893333-13.952-97.706667-67.498667-97.706667-130.346667 0-62.805333 41.813333-114.005333 97.706667-130.304V311.850667c-55.893333-13.952-97.706667-67.498667-97.706667-130.304 0-62.848 41.813333-114.048 97.706667-130.346667V0H181.547093C81.451093 0 0.000427 83.797333 0.000427 186.197333a190.72 190.72 0 0 0 90.752 162.901334A190.72 190.72 0 0 0 0.000427 512a190.72 190.72 0 0 0 90.752 162.901333A190.72 190.72 0 0 0 0.000427 837.802667C0.000427 940.202667 81.49376 1024 181.547093 1024H1024.000427v-58.197333c-55.893333-13.952-97.706667-67.456-97.706667-130.304 0-60.501333 41.813333-114.048 97.706667-128zM48.85376 186.197333c0-76.8 60.544-137.344 132.693333-137.344h756.352c-37.248 34.944-60.501333 83.797333-60.501333 137.344 0 53.504 23.253333 104.704 60.501333 137.301334H181.547093c-74.496 2.304-132.693333-60.501333-132.693333-137.301334z m0 325.802667c0-76.8 60.544-137.301333 132.693333-137.301333h756.352c-37.248 34.901333-60.501333 83.754667-60.501333 137.301333s23.253333 104.746667 60.501333 137.301333H181.547093c-74.496 0-132.693333-60.501333-132.693333-137.301333z m828.544 325.802667c0 53.546667 23.253333 104.746667 60.501333 137.344H181.547093c-74.496 0-132.693333-62.848-132.693333-137.344 0-76.8 60.544-137.301333 132.693333-137.301334h756.352c-37.248 32.597333-60.501333 81.493333-60.501333 137.301334z" fill="#13A19B" p-id="5882"></path><path d="M197.803093 48.853333v528.298667c0 9.301333 9.344 13.994667 16.298667 11.648l48.896-23.253333 48.853333 23.253333c6.997333 4.693333 16.298667-2.346667 16.298667-11.648V48.853333H197.803093z" fill="#13A19B" p-id="5883"></path><path d="M225.707093 79.146667c-9.258667 0-13.909333 6.954667-13.909333 13.952v90.752c0 9.301333 6.954667 13.952 13.952 13.952 9.301333 0 13.952-6.954667 13.952-13.952V95.402667c2.346667-9.301333-4.650667-16.256-13.952-16.256z" fill="#13A19B" fill-opacity=".304" p-id="5884"></path><path d="M211.79776 232.746667a13.952 13.952 0 1 0 27.904 0 13.952 13.952 0 0 0-27.904 0z" fill="#13A19B" p-id="5885"></path></svg>